<?xml version="1.0" encoding="UTF-8" standalone="no"?>
<svg width="300px" height="300px" viewBox="0 0 300 300" version="1.1" xmlns="http://www.w3.org/2000/svg" xmlns:xlink="http://www.w3.org/1999/xlink">
    <!-- Generator: Sketch 41.2 (35397) - http://www.bohemiancoding.com/sketch -->
    <title>poster/canvas-css</title>
    <desc>Created with Sketch.</desc>
    <defs></defs>
    <g id="Page-1" stroke="none" stroke-width="1" fill="none" fill-rule="evenodd" opacity="0.303171642">
        <g id="poster/canvas-css" fill="#FFFFFF">
            <path d="M161.397706,113.625 L125.850826,148.859375 C124.340406,150.317716 122.660736,151.411455 120.811766,152.140625 C118.962796,152.869795 117.074796,153.234375 115.147706,153.234375 C113.220616,153.234375 111.332616,152.869795 109.483646,152.140625 C107.634676,151.411455 105.955006,150.317716 104.444581,148.859375 C101.5279,145.94269 100.069581,142.41408 100.069581,138.27344 C100.069581,134.13279 101.5279,130.60418 104.444581,127.6875 L136.475826,96.04688 C138.455006,94.0677 140.837796,93.07812 143.624266,93.07812 C146.410736,93.07812 148.793526,94.0677 150.772706,96.04688 C152.699796,97.97397 153.663326,100.31769 153.663326,103.07812 C153.663326,105.83856 152.699796,108.18228 150.772706,110.10938 L118.663326,141.82812 C117.725826,142.76563 116.553966,143.23438 115.147706,143.23438 C113.741446,143.23438 112.543546,142.76563 111.553956,141.82812 C110.564366,140.83854 110.069586,139.65365 110.069586,138.27344 C110.069586,136.89322 110.564366,135.70834 111.553956,134.71875 L140.069586,106.59375 L136.475826,103.07812 L108.038326,131.20312 C106.059156,133.1823 105.069586,135.53905 105.069586,138.27344 C105.069586,141.00783 106.059156,143.36457 108.038326,145.34375 C109.965426,147.27084 112.322176,148.23438 115.108646,148.23438 C117.895116,148.23438 120.277906,147.27084 122.257086,145.34375 L154.288326,113.625 C157.257096,110.70832 158.741456,107.19273 158.741456,103.07812 C158.741456,98.96352 157.257096,95.44793 154.288326,92.53125 C152.829986,91.07291 151.163336,89.97917 149.288326,89.25 C147.413326,88.52083 145.512296,88.15625 143.585206,88.15625 C141.658116,88.15625 139.770116,88.52083 137.921146,89.25 C136.072176,89.97917 134.418546,91.07291 132.960206,92.53125 L99.1320805,125.96875 L99.2102055,126.04688 C97.6997815,128.02605 96.5930215,130.16145 95.8898935,132.45312 C95.1867645,134.7448 94.900309,137.07551 95.030518,139.44531 C95.160727,141.81512 95.7206172,144.10676 96.7102055,146.32031 C97.6997935,148.533865 99.1060295,150.552074 100.928956,152.375 C102.699798,154.145842 104.718007,155.513016 106.983646,156.476562 C109.249276,157.440109 111.566966,157.986979 113.936766,158.117188 C116.306576,158.247396 118.663316,157.973962 121.007086,157.296875 C123.350846,156.619788 125.512276,155.526049 127.491456,154.015625 L127.569586,154.09375 L164.991456,117.14062 L161.397706,113.625 Z" id="Page-1"></path>
            <path d="M76.39062,16.04688 L71.54688,28 L36.39062,28 L31.546875,16.04688 C30.036451,16.04688 28.73438,16.59374 27.640625,17.6875 C26.5468695,18.78126 26,20.08333 26,21.59375 L26,82.453125 C26,83.963549 26.5468695,85.26562 27.640625,86.359375 C28.73438,87.4531305 30.036451,88 31.546875,88 L76.39062,88 C77.90105,88 79.20312,87.4531305 80.29688,86.359375 C81.39063,85.26562 81.9375,83.963549 81.9375,82.453125 L81.9375,21.59375 C81.9375,20.08333 81.39063,18.78126 80.29688,17.6875 C79.20312,16.59374 77.90105,16.04688 76.39062,16.04688 Z M68.34375,24.01562 L71.9375,16.04688 L63.26562,16.04688 L60.375,8 L47.5625,8 L44.67188,16.04688 L36,16.04688 L39.59375,24.01562 L68.34375,24.01562 Z" id="aaa"></path>
        </g>
    </g>
</svg>